<svg version="1.1" id="Layer_1" xmlns="http://www.w3.org/2000/svg" xmlns:xlink="http://www.w3.org/1999/xlink" x="0px" y="0px"
	 width="437" height="316" viewBox="0 0 437 316" xml:space="preserve">
<path fill="#EFEFEF" opacity="1.000000" stroke="none" 
	d="
M246.000000,301.000000 
	C164.000015,301.000000 82.500031,301.000000 1.000033,301.000000 
	C1.000022,201.000031 1.000022,101.000069 1.000011,1.000073 
	C134.333267,1.000049 267.666534,1.000049 400.999878,1.000024 
	C400.999908,100.999931 400.999908,200.999863 400.999939,300.999878 
	C349.500000,301.000000 298.000000,301.000000 246.000000,301.000000 
M211.724762,202.238998 
	C224.730423,199.841064 234.925110,193.109543 242.917999,182.612503 
	C255.781509,165.718903 257.384705,143.013931 246.406479,124.756393 
	C234.892624,105.608116 217.876297,97.158943 195.554337,98.914574 
	C183.957214,99.826691 173.846481,104.291092 165.663223,112.042923 
	C143.312119,133.215683 141.877518,165.707016 164.013763,188.339844 
	C176.822189,201.435654 192.950455,205.530579 211.724762,202.238998 
z"/>
<path fill="#F6F6F6" opacity="1.000000" stroke="none" 
	d="
M211.327225,202.381622 
	C192.950455,205.530579 176.822189,201.435654 164.013763,188.339844 
	C141.877518,165.707016 143.312119,133.215683 165.663223,112.042923 
	C173.846481,104.291092 183.957214,99.826691 195.554337,98.914574 
	C217.876297,97.158943 234.892624,105.608116 246.406479,124.756393 
	C257.384705,143.013931 255.781509,165.718903 242.917999,182.612503 
	C234.925110,193.109543 224.730423,199.841064 211.327225,202.381622 
M179.158539,176.980728 
	C191.138336,176.988556 203.118225,177.029938 215.097870,176.989716 
	C220.882675,176.970306 226.121689,173.440796 226.697144,168.087173 
	C227.360443,161.916351 226.851288,155.619507 226.851288,149.377380 
	C226.246979,149.167465 225.642670,148.957535 225.038361,148.747620 
	C224.077682,150.522583 223.117020,152.297546 222.032852,154.300690 
	C221.620483,154.054794 220.771179,153.588989 219.963058,153.060242 
	C211.096756,147.259384 205.362747,147.024063 197.476410,154.036514 
	C192.496140,158.464951 188.682983,164.271606 184.668503,169.698425 
	C181.800873,173.574905 179.241028,174.224258 176.080719,170.467392 
	C174.497101,168.584824 173.250031,165.820618 173.146866,163.399902 
	C172.792984,155.095703 172.853271,146.763016 173.065964,138.449127 
	C173.220734,132.399277 176.910721,129.056229 182.886429,129.013031 
	C188.376892,128.973343 193.872253,129.124557 199.355911,128.926895 
	C200.951889,128.869370 202.515091,127.902809 204.093307,127.352928 
	C203.990875,126.758415 203.888443,126.163902 203.786026,125.569397 
	C202.256409,125.378113 200.728653,125.041512 199.196838,125.021873 
	C193.873337,124.953621 188.501190,125.446808 183.234467,124.895744 
	C173.944778,123.923744 168.887878,131.930099 168.973816,139.058151 
	C169.070099,147.043549 168.917007,155.032043 169.020691,163.017258 
	C169.106033,169.589264 171.885376,174.493378 179.158539,176.980728 
M223.462265,121.970917 
	C220.920685,118.558258 218.419952,118.146423 215.583160,121.772812 
	C214.060638,123.719093 211.996826,125.236031 210.410858,127.141144 
	C209.662750,128.039780 209.464478,129.396118 209.017059,130.545059 
	C209.415771,130.831512 209.814484,131.117981 210.213211,131.404434 
	C212.331192,129.876419 214.449173,128.348389 216.701538,126.723419 
	C218.057755,143.236496 218.057755,143.236496 221.131805,143.665817 
	C221.131805,137.954712 221.131805,132.323502 221.131805,125.855461 
	C223.117081,127.723114 224.161209,129.117233 225.551529,129.881821 
	C226.645889,130.483643 228.167160,130.309113 229.498810,130.479446 
	C229.183289,129.337082 229.161713,127.966545 228.489746,127.100868 
	C227.177643,125.410484 225.501984,124.002312 223.462265,121.970917 
M188.305969,150.021286 
	C193.009140,148.825485 195.676849,145.650909 194.933990,141.839279 
	C194.129410,137.710876 191.242889,135.618530 187.263367,135.414093 
	C183.417816,135.216537 180.112244,138.792847 179.999466,142.711639 
	C179.878830,146.903549 182.394348,149.365234 188.305969,150.021286 
z"/>
<path fill="#A0A0A0" opacity="1.000000" stroke="none" 
	d="
M178.736298,176.931122 
	C171.885376,174.493378 169.106033,169.589264 169.020691,163.017258 
	C168.917007,155.032043 169.070099,147.043549 168.973816,139.058151 
	C168.887878,131.930099 173.944778,123.923744 183.234467,124.895744 
	C188.501190,125.446808 193.873337,124.953621 199.196838,125.021873 
	C200.728653,125.041512 202.256409,125.378113 203.786026,125.569397 
	C203.888443,126.163902 203.990875,126.758415 204.093307,127.352928 
	C202.515091,127.902809 200.951889,128.869370 199.355911,128.926895 
	C193.872253,129.124557 188.376892,128.973343 182.886429,129.013031 
	C176.910721,129.056229 173.220734,132.399277 173.065964,138.449127 
	C172.853271,146.763016 172.792984,155.095703 173.146866,163.399902 
	C173.250031,165.820618 174.497101,168.584824 176.080719,170.467392 
	C179.241028,174.224258 181.800873,173.574905 184.668503,169.698425 
	C188.682983,164.271606 192.496140,158.464951 197.476410,154.036514 
	C205.362747,147.024063 211.096756,147.259384 219.963058,153.060242 
	C220.771179,153.588989 221.620483,154.054794 222.032852,154.300690 
	C223.117020,152.297546 224.077682,150.522583 225.038361,148.747620 
	C225.642670,148.957535 226.246979,149.167465 226.851288,149.377380 
	C226.851288,155.619507 227.360443,161.916351 226.697144,168.087173 
	C226.121689,173.440796 220.882675,176.970306 215.097870,176.989716 
	C203.118225,177.029938 191.138336,176.988556 178.736298,176.931122 
M191.310837,166.886078 
	C190.189499,168.627625 189.068161,170.369186 187.416260,172.934784 
	C197.871918,172.934784 207.326508,173.369614 216.686264,172.620178 
	C218.944260,172.439362 222.168884,168.614838 222.734253,165.989044 
	C224.361252,158.432800 212.251938,150.063400 205.153488,154.164078 
	C200.044022,157.115753 196.143967,162.160965 191.310837,166.886078 
z"/>
<path fill="#9F9F9F" opacity="1.000000" stroke="none" 
	d="
M223.719559,122.224106 
	C225.501984,124.002312 227.177643,125.410484 228.489746,127.100868 
	C229.161713,127.966545 229.183289,129.337082 229.498810,130.479446 
	C228.167160,130.309113 226.645889,130.483643 225.551529,129.881821 
	C224.161209,129.117233 223.117081,127.723114 221.131805,125.855461 
	C221.131805,132.323502 221.131805,137.954712 221.131805,143.665817 
	C218.057755,143.236496 218.057755,143.236496 216.701538,126.723419 
	C214.449173,128.348389 212.331192,129.876419 210.213211,131.404434 
	C209.814484,131.117981 209.415771,130.831512 209.017059,130.545059 
	C209.464478,129.396118 209.662750,128.039780 210.410858,127.141144 
	C211.996826,125.236031 214.060638,123.719093 215.583160,121.772812 
	C218.419952,118.146423 220.920685,118.558258 223.719559,122.224106 
z"/>
<path fill="#A2A2A2" opacity="1.000000" stroke="none" 
	d="
M187.900406,150.033951 
	C182.394348,149.365234 179.878830,146.903549 179.999466,142.711639 
	C180.112244,138.792847 183.417816,135.216537 187.263367,135.414093 
	C191.242889,135.618530 194.129410,137.710876 194.933990,141.839279 
	C195.676849,145.650909 193.009140,148.825485 187.900406,150.033951 
M187.506958,145.985336 
	C188.602921,144.682999 189.698898,143.380661 190.794861,142.078323 
	C189.822601,141.365082 188.840179,140.068756 187.880646,140.085480 
	C186.667877,140.106628 185.473740,141.197311 184.271576,141.826660 
	C185.089203,143.198639 185.906830,144.570618 187.506958,145.985336 
z"/>
<path fill="#F6F6F6" opacity="1.000000" stroke="none" 
	d="
M191.507629,166.579193 
	C196.143967,162.160965 200.044022,157.115753 205.153488,154.164078 
	C212.251938,150.063400 224.361252,158.432800 222.734253,165.989044 
	C222.168884,168.614838 218.944260,172.439362 216.686264,172.620178 
	C207.326508,173.369614 197.871918,172.934784 187.416260,172.934784 
	C189.068161,170.369186 190.189499,168.627625 191.507629,166.579193 
z"/>
<path fill="#F6F6F6" opacity="1.000000" stroke="none" 
	d="
M187.115707,145.963959 
	C185.906830,144.570618 185.089203,143.198639 184.271576,141.826660 
	C185.473740,141.197311 186.667877,140.106628 187.880646,140.085480 
	C188.840179,140.068756 189.822601,141.365082 190.794861,142.078323 
	C189.698898,143.380661 188.602921,144.682999 187.115707,145.963959 
z"/>
</svg>